<svg xmlns="http://www.w3.org/2000/svg" style="display:none">
  <symbol id="i-refresh" viewBox="0 0 24 24">
    <path d="M21 3v6h-6"/>
    <path d="M3 21v-6h6"/>
    <path d="M5.64 8.51a9 9 0 0 1 14.36 3.49"/>
    <path d="M18.36 15.49A9 9 0 0 1 4 12"/>
  </symbol>
  <symbol id="i-settings" viewBox="0 0 24 24">
    <circle cx="12" cy="12" r="3.25"/>
    <path d="M12 4V2M12 22v-2M4 12H2M22 12h-2"/>
    <path d="M5.64 5.64l-1.3-1.3M19.66 19.66l-1.3-1.3M5.64 18.36l-1.3 1.3M19.66 4.34l-1.3 1.3"/>
  </symbol>
  <symbol id="i-menu" viewBox="0 0 24 24">
    <path d="M3 6h18M3 12h18M3 18h18"/>
  </symbol>
  <symbol id="i-close" viewBox="0 0 24 24">
    <path d="M6 6l12 12M18 6L6 18"/>
  </symbol>
  <symbol id="i-logout" viewBox="0 0 24 24">
    <path d="M16 17l5-5-5-5"/>
    <path d="M21 12H9"/>
    <path d="M12 21H5a2 2 0 0 1-2-2V5a2 2 0 0 1 2-2h7"/>
  </symbol>
  <symbol id="i-dashboard" viewBox="0 0 24 24">
    <path d="M3 13h8V3H3v10zm0 8h8v-6H3v6zm10 0h8v-10h-8v10zm0-18v6h8V3h-8z"/>
  </symbol>
  <symbol id="i-products" viewBox="0 0 24 24">
    <path d="M16 6V4H5a2 2 0 0 0-2 2v10h2V6h11z"/>
    <path d="M11 4h8a2 2 0 0 1 2 2v12a2 2 0 0 1-2 2H7v-2"/>
  </symbol>
  <symbol id="i-categories" viewBox="0 0 24 24">
    <path d="M3 5h8v6H3zM13 5h8v6h-8zM3 13h8v6H3zM13 13h8v6h-8z"/>
  </symbol>
  <symbol id="i-users" viewBox="0 0 24 24">
    <circle cx="16" cy="8" r="3"/>
    <circle cx="8" cy="8" r="3"/>
    <path d="M2 19c0-2.8 2.4-5 6-5s6 2.2 6 5"/>
    <path d="M14 15c.6-.2 1.3-.3 2-.3 3.6 0 6 2.2 6 5"/>
  </symbol>
  <symbol id="i-box" viewBox="0 0 24 24">
    <path d="M3 7l9-4 9 4-9 4-9-4zm0 6l9 4 9-4"/>
    <path d="M3 7v10l9 4 9-4V7"/>
  </symbol>
  <symbol id="i-tag" viewBox="0 0 24 24">
    <path d="M20 10l-8 8-9-9V3h6l11 11z"/>
    <circle cx="7.5" cy="7.5" r="1.5"/>
  </symbol>
  <symbol id="i-plus" viewBox="0 0 24 24">
    <path d="M12 5v14M5 12h14"/>
  </symbol>
  <symbol id="i-check" viewBox="0 0 24 24">
    <path d="M4 12l4 4 12-12"/>
  </symbol>
</svg>
