<?xml version="1.0" standalone="no"?>
<!DOCTYPE svg PUBLIC "-//W3C//DTD SVG 20010904//EN"
 "http://www.w3.org/TR/2001/REC-SVG-20010904/DTD/svg10.dtd">
<svg version="1.0" xmlns="http://www.w3.org/2000/svg"
 width="1024.000000pt" height="1536.000000pt" viewBox="0 0 1024.000000 1536.000000"
 preserveAspectRatio="xMidYMid meet">

<g transform="translate(0.000000,1536.000000) scale(0.100000,-0.100000)"
fill="#000000" stroke="none">
<path d="M6893 12931 c-76 -26 -118 -62 -154 -136 -29 -59 -31 -71 -27 -137 5
-83 28 -136 80 -185 57 -55 110 -73 221 -73 l97 0 0 -93 0 -94 -87 -12 c-400
-55 -796 -259 -1083 -557 -154 -160 -252 -302 -351 -509 -124 -259 -179 -510
-179 -817 0 -530 203 -1008 586 -1378 264 -255 562 -415 915 -494 1104 -244
2177 507 2325 1627 19 146 14 446 -9 572 -66 350 -197 632 -416 895 l-71 85
38 37 37 37 51 -14 c176 -46 338 136 269 303 -20 47 -295 325 -350 354 -48 25
-133 28 -185 6 -45 -19 -99 -73 -118 -118 -22 -53 -19 -137 7 -188 l22 -43
-47 -55 c-43 -51 -48 -54 -68 -41 -66 43 -179 108 -231 134 -151 76 -373 143
-542 164 l-101 12 0 92 0 93 111 4 c127 4 171 21 225 83 57 64 67 92 67 185 0
102 -19 146 -91 209 -78 69 -96 71 -518 71 -330 -1 -377 -3 -423 -19z m662
-1152 c545 -81 1005 -454 1184 -962 60 -172 75 -269 75 -497 0 -174 -3 -220
-22 -307 -101 -462 -395 -833 -826 -1039 -538 -257 -1174 -168 -1626 228 -240
210 -407 500 -477 828 -26 121 -26 458 0 580 63 295 193 537 402 745 338 339
812 494 1290 424z"/>
<path d="M7268 11410 c-46 -14 -90 -51 -109 -94 -17 -38 -19 -75 -19 -522 l0
-480 28 -45 c41 -63 521 -525 565 -544 110 -46 242 26 254 139 12 100 12 100
-248 362 l-240 240 1 405 c1 222 -2 413 -6 424 -32 90 -135 143 -226 115z"/>
<path d="M3175 11314 c-128 -66 -142 -224 -28 -311 l36 -28 856 -3 c769 -2
860 -1 899 14 138 52 143 264 8 325 -39 18 -84 19 -891 19 -751 0 -853 -2
-880 -16z"/>
<path d="M2824 10521 c-134 -61 -134 -261 -1 -322 40 -18 80 -19 994 -19 649
0 961 3 980 11 38 14 83 57 99 96 40 92 -8 208 -99 242 -19 8 -331 11 -980 11
-905 0 -954 -1 -993 -19z"/>
<path d="M3425 9751 c-48 -22 -69 -44 -90 -94 -19 -45 -19 -97 -1 -140 17 -43
76 -93 123 -106 54 -15 1404 -15 1458 0 22 6 56 28 76 48 90 89 67 236 -44
290 -43 21 -54 21 -763 21 -676 0 -721 -2 -759 -19z"/>
<path d="M754 9236 c-175 -82 -192 -320 -30 -421 l49 -30 588 -3 588 -2 6 -33
c28 -133 456 -1998 576 -2512 528 -2253 564 -2399 593 -2450 28 -47 88 -105
138 -132 32 -17 138 -18 2353 -21 1706 -2 2331 0 2361 9 85 23 149 103 161
198 10 86 -31 167 -110 219 l-41 27 -2244 5 -2245 5 -57 240 -56 240 2416 5
c2050 4 2419 7 2440 19 88 49 137 126 164 251 8 41 92 417 186 835 405 1798
460 2049 460 2088 0 91 -52 176 -134 220 l-41 22 -3142 3 -3143 2 -5 23 c-3
12 -52 225 -109 474 -115 497 -127 531 -218 625 -28 29 -75 62 -115 81 l-68
32 -635 3 -635 2 -51 -24z m3245 -2063 c23 -214 45 -407 48 -430 l6 -43 -581
0 -582 0 -5 23 c-3 12 -46 198 -95 412 -50 215 -93 398 -96 408 -5 16 29 17
629 17 l634 0 42 -387z m1451 -43 l0 -430 -495 0 -495 0 -5 23 c-4 18 -95 814
-95 832 0 3 245 5 545 5 l545 0 0 -430z m1497 378 c-4 -29 -25 -213 -47 -408
-22 -195 -43 -365 -45 -377 l-5 -23 -495 0 -495 0 0 430 0 430 546 0 547 0 -6
-52z m1609 35 c-5 -17 -196 -834 -196 -840 0 -2 -247 -3 -550 -3 -517 0 -550
1 -550 18 0 25 90 815 95 830 3 9 133 12 605 12 568 0 601 -1 596 -17z m-4459
-1255 c2 -7 32 -276 68 -598 35 -322 67 -602 70 -622 l5 -38 -482 0 -483 0
-144 623 c-80 342 -146 629 -148 637 -4 13 62 15 554 13 442 -2 559 -5 560
-15z m1353 -620 l0 -638 -400 0 -399 0 -5 33 c-3 17 -22 174 -41 347 -20 173
-50 445 -68 603 -18 158 -32 289 -31 290 1 1 214 2 473 2 l471 0 0 -637z
m1290 87 c-33 -286 -66 -566 -72 -622 l-11 -103 -399 0 -398 0 0 635 0 635
468 2 c408 3 467 1 470 -12 1 -8 -25 -249 -58 -535z m1530 545 c0 -6 -280
-1229 -286 -1252 -5 -17 -36 -18 -464 -18 -431 0 -458 1 -454 18 2 9 33 278
69 597 36 319 68 598 71 620 l6 40 529 0 c291 0 529 -2 529 -5z"/>
<path d="M4035 3484 c-198 -31 -378 -161 -464 -334 -94 -191 -94 -378 0 -570
78 -159 230 -281 404 -325 75 -19 221 -19 303 0 193 46 360 200 429 397 34 97
42 251 19 353 -51 216 -222 396 -436 459 -56 17 -202 28 -255 20z"/>
<path d="M6955 3480 c-236 -48 -431 -233 -490 -465 -19 -76 -19 -224 0 -300
23 -90 75 -193 133 -261 60 -73 174 -152 263 -184 89 -31 268 -39 359 -15 357
93 553 458 433 807 -37 106 -86 181 -172 260 -141 130 -351 193 -526 158z"/>
</g>
</svg>
