<svg xmlns="http://www.w3.org/2000/svg" xmlns:xlink="http://www.w3.org/1999/xlink" version="1.1" x="0px" y="0px" viewBox="0 0 64 80" style="enable-background:new 0 0 64 64;" xml:space="preserve"><path d="M33,61h28V3H33V61z M55,11h2v2h-2V11z M55,15h2v2h-2V15z M55,19h2v2h-2V19z M55,23h2v2h-2V23z M51,11h2v2h-2V11z M51,15h2v2  h-2V15z M51,19h2v2h-2V19z M51,23h2v2h-2V23z M53,27v2H42v-2H53z M36,11h12v2H36V11z M36,15h12v2H36V15z M36,19h12v2H36V19z M36,23  h12v2H36V23z M35,43c0-2.019,1.215-3.809,3.034-4.584C38.324,35.933,40.44,34,43,34c0.007,0,0.015,0,0.021,0  c0.938-1.248,2.41-2,3.979-2c1.625,0,3.146,0.808,4.077,2.138c2.078,0.456,3.641,2.181,3.889,4.277C56.784,39.191,58,40.981,58,43v5  c0,3.314-2.686,6-6,6v3H41v-3c-3.314,0-6-2.686-6-6V43z"/><rect x="54" y="45" width="2" height="2"/><path d="M53.739,40.105l-0.786-0.2l0.05-0.971c-0.003-1.442-1.141-2.715-2.65-2.894l-0.504-0.06L49.6,35.539  C49.064,34.59,48.068,34,47,34c-1.07,0-2.067,0.591-2.602,1.542l-0.331,0.589l-0.784-0.102C43.19,36.016,43.097,36,43,36  c-1.654,0-3,1.346-3,3c0-0.001,0.001-0.002,0.001-0.002c0.005,0,0.01,0.048,0.012,0.096l0.034,0.812l-0.786,0.2  C37.93,40.445,37,41.636,37,43h19C56,41.636,55.07,40.445,53.739,40.105z"/><path d="M3,61h28V3H3V61z M24,56h-2v-2h2V56z M24,52h-2v-2h2V52z M24,48h-2v-2h2V48z M24,44h-2v-2h2V44z M24,40h-2v-2h2V40z M24,36  h-2v-2h2V36z M24,32h-2v-2h2V32z M24,28h-2v-2h2V28z M24,24h-2v-2h2V24z M24,20h-2v-2h2V20z M28,56h-2v-2h2V56z M28,52h-2v-2h2V52z   M28,48h-2v-2h2V48z M28,44h-2v-2h2V44z M28,40h-2v-2h2V40z M28,36h-2v-2h2V36z M28,32h-2v-2h2V32z M28,28h-2v-2h2V28z M28,24h-2v-2  h2V24z M28,20h-2v-2h2V20z M11,7h13v2H11V7z M9,11h17v2H9V11z M7,18h12v2H7V18z M7,22h12v2H7V22z M7,26h12v2H7V26z M7,30h12v2H7V30z   M7,34h12v2H7V34z M7,38h12v2H7V38z M7,42h12v2H7V42z M7,46h12v2H7V46z M7,50h12v2H7V50z M7,54h12v2H7V54z"/><rect x="50" y="45" width="2" height="2"/><rect x="46" y="45" width="2" height="2"/><text x="0" y="79" fill="#000000" font-size="5px" font-weight="bold" font-family="'Helvetica Neue', Helvetica, Arial-Unicode, Arial, Sans-serif">Created by Becris</text><text x="0" y="84" fill="#000000" font-size="5px" font-weight="bold" font-family="'Helvetica Neue', Helvetica, Arial-Unicode, Arial, Sans-serif">from the Noun Project</text></svg>