<?xml version="1.0" standalone="no"?>
<!DOCTYPE svg PUBLIC "-//W3C//DTD SVG 20010904//EN"
 "http://www.w3.org/TR/2001/REC-SVG-20010904/DTD/svg10.dtd">
<svg version="1.0" xmlns="http://www.w3.org/2000/svg"
 width="1024.000000pt" height="1536.000000pt" viewBox="0 0 1024.000000 1536.000000"
 preserveAspectRatio="xMidYMid meet">

<g transform="translate(0.000000,1536.000000) scale(0.100000,-0.100000)"
fill="#000000" stroke="none">
<path d="M2211 12508 c-220 -31 -403 -200 -468 -429 -17 -61 -18 -195 -17
-2809 1 -2560 2 -2749 18 -2809 51 -189 185 -338 371 -412 l60 -24 1528 -3
c1329 -2 1536 0 1592 13 212 49 402 238 444 442 7 35 11 333 11 900 0 467 0
853 0 860 0 8 -9 7 -31 -4 -22 -11 -52 -14 -105 -11 l-74 3 0 -817 c0 -848 -1
-881 -42 -963 -32 -61 -123 -150 -181 -177 l-52 -23 -1525 0 -1525 0 -56 28
c-108 53 -191 169 -209 294 -14 96 -13 5326 0 5412 20 121 96 228 199 278 l56
28 266 3 266 3 5 -108 c7 -129 29 -202 88 -279 48 -64 113 -114 190 -146 l55
-23 644 -3 c570 -2 650 -1 699 14 80 23 128 49 184 102 96 89 138 196 138 348
l0 94 253 0 c317 0 331 -3 427 -98 50 -50 74 -82 91 -127 l24 -60 5 -635 c3
-349 7 -630 8 -624 1 5 47 77 102 159 l100 150 0 483 c0 534 -1 550 -63 667
-45 85 -165 204 -247 244 -146 71 -13 65 -1670 67 -877 1 -1522 -2 -1559 -8z
m2309 -290 c0 -106 -14 -145 -70 -200 -38 -37 -59 -48 -103 -58 -39 -8 -229
-10 -639 -8 l-583 3 -47 23 c-84 42 -118 108 -118 233 l0 79 780 0 780 0 0
-72z"/>
<path d="M6869 11465 c-192 -31 -321 -74 -489 -161 -371 -193 -651 -540 -755
-937 -38 -148 -49 -241 -49 -422 0 -251 40 -431 141 -645 l46 -95 -82 -340
c-45 -187 -81 -350 -81 -362 0 -29 34 -63 62 -63 22 0 165 40 489 136 l187 56
94 -51 c120 -65 278 -116 437 -142 162 -27 421 -22 573 10 199 43 408 133 565
244 110 78 290 257 365 362 115 163 201 355 245 550 34 155 43 423 18 597 -47
330 -184 598 -427 834 -124 121 -232 199 -375 272 -134 68 -264 113 -409 143
-132 27 -431 35 -555 14z m526 -235 c265 -60 482 -176 661 -355 192 -192 316
-424 361 -679 21 -121 21 -352 -1 -476 -90 -513 -487 -925 -1016 -1052 -58
-14 -133 -22 -235 -25 -260 -8 -421 28 -663 150 l-142 71 -218 -63 c-278 -81
-266 -78 -258 -55 3 11 31 124 62 253 l56 233 -66 132 c-106 212 -135 324
-143 546 -8 233 33 426 132 625 127 253 336 463 587 587 126 62 208 86 448
132 62 12 347 -4 435 -24z"/>
<path d="M6570 10731 c-89 -28 -174 -104 -216 -195 -35 -77 -50 -190 -37 -277
21 -132 153 -365 308 -542 194 -222 479 -417 750 -513 69 -25 95 -29 190 -29
102 0 114 2 164 28 103 55 182 156 210 271 9 35 9 57 1 81 -10 31 -22 38 -163
98 -200 85 -227 93 -267 77 -18 -7 -57 -46 -96 -96 -36 -46 -72 -84 -80 -84
-29 0 -141 54 -224 107 -144 94 -315 279 -376 405 l-17 37 65 73 c71 80 88
106 88 138 0 20 -105 310 -137 377 -22 46 -92 65 -163 44z"/>
<path d="M3673 10430 c-140 -29 -233 -162 -233 -334 0 -30 -2 -31 -88 -55
-173 -47 -381 -163 -529 -293 -236 -208 -389 -479 -455 -808 l-23 -115 -58 -5
c-71 -6 -106 -37 -114 -98 -5 -37 -2 -45 30 -77 28 -28 43 -35 74 -35 l38 0
12 -59 c16 -86 52 -158 113 -224 59 -65 109 -98 195 -127 57 -20 83 -20 1107
-20 1035 0 1049 0 1110 21 160 54 280 186 312 343 12 57 15 61 42 64 93 9 140
83 100 161 -18 34 -54 51 -110 51 l-43 0 -21 108 c-61 309 -201 565 -429 783
-55 52 -135 119 -179 148 -110 74 -286 157 -387 183 l-85 22 -4 71 c-11 164
-121 284 -273 298 -33 3 -79 2 -102 -3z m137 -227 c23 -20 33 -40 37 -70 l6
-43 -108 0 c-106 0 -107 0 -101 23 3 12 6 30 6 40 0 10 13 32 29 48 39 39 89
40 131 2z m130 -344 c353 -51 683 -295 859 -638 54 -106 114 -273 126 -354 l7
-47 -1187 0 c-1125 0 -1186 1 -1181 18 3 9 12 46 20 82 69 301 226 547 461
723 257 191 557 264 895 216z m1010 -1264 c0 -53 -78 -146 -150 -179 -45 -21
-52 -21 -1050 -21 -1090 0 -1039 -3 -1120 56 -38 28 -90 111 -90 147 0 9 248
12 1205 12 1078 0 1205 -2 1205 -15z"/>
<path d="M3410 6692 c-67 -33 -74 -134 -13 -182 25 -19 40 -20 350 -20 l325 0
34 34 c25 25 34 43 34 67 0 51 -32 96 -77 108 -23 7 -155 11 -328 11 -256 0
-294 -2 -325 -18z"/>
<path d="M1264 4955 c-3 -6 -3 -167 -2 -358 l3 -349 58 -1 57 -2 0 117 0 118
88 0 c154 0 235 40 279 138 22 46 25 65 21 121 -5 68 -30 132 -65 163 -10 10
-40 27 -66 38 -41 18 -69 22 -209 23 -100 1 -162 -2 -164 -8z m337 -118 c33
-22 49 -57 49 -108 0 -104 -57 -148 -192 -149 l-78 0 0 141 0 141 98 -4 c70
-3 104 -9 123 -21z"/>
<path d="M2754 4961 c-2 -2 -4 -63 -4 -135 0 -126 -1 -130 -18 -110 -27 35
-77 54 -137 54 -133 0 -215 -101 -215 -265 0 -160 83 -265 209 -265 61 0 97
13 134 48 l27 26 0 -32 c0 -27 4 -32 24 -32 13 0 38 -3 55 -6 l31 -6 0 366 0
366 -51 -2 c-27 -1 -52 -4 -55 -7z m-55 -307 c34 -24 51 -74 51 -150 0 -112
-41 -164 -128 -164 -76 0 -124 64 -125 165 -1 68 29 135 67 153 33 17 109 14
135 -4z"/>
<path d="M3030 4963 c-25 -9 -40 -35 -40 -69 0 -57 69 -85 110 -44 50 50 -4
137 -70 113z"/>
<path d="M3590 4833 l0 -137 -27 26 c-37 35 -73 48 -134 48 -66 0 -109 -19
-147 -66 -48 -58 -65 -121 -60 -223 5 -100 29 -155 91 -205 33 -27 48 -31 111
-34 70 -4 73 -3 119 32 l47 36 0 -30 c0 -28 2 -30 39 -30 22 0 46 -3 55 -6 14
-6 16 30 16 360 l0 366 -55 0 -55 0 0 -137z m-54 -178 c34 -23 54 -77 54 -144
0 -108 -45 -171 -122 -171 -88 0 -132 53 -133 160 0 79 18 126 59 151 37 23
113 25 142 4z"/>
<path d="M5510 4829 l0 -141 -25 31 c-33 38 -83 54 -151 49 -71 -6 -121 -41
-159 -109 -28 -50 -30 -62 -30 -154 0 -88 3 -107 25 -149 38 -74 87 -109 160
-114 76 -6 102 1 145 39 l35 31 0 -31 c0 -17 3 -31 8 -32 4 0 28 -2 55 -4 l47
-4 0 365 0 364 -55 0 -55 0 0 -141z m-51 -180 c13 -12 29 -37 37 -55 18 -43
18 -135 0 -178 -28 -67 -109 -95 -176 -61 -36 19 -48 40 -61 110 -13 71 2 128
46 172 28 28 40 33 82 33 36 0 55 -6 72 -21z"/>
<path d="M5765 4945 c-32 -31 -32 -59 1 -92 45 -45 114 -15 114 49 0 62 -70
89 -115 43z"/>
<path d="M7550 4876 l-45 -12 -3 -52 -3 -52 -40 0 -39 0 0 -45 0 -45 40 0 40
0 0 -149 c0 -181 4 -203 45 -247 32 -33 34 -34 114 -34 l82 0 -3 52 -3 53 -40
-3 c-75 -6 -80 5 -83 177 l-4 151 66 0 66 0 0 45 0 45 -65 0 -65 0 0 65 c0 36
-3 65 -7 64 -5 -1 -28 -6 -53 -13z"/>
<path d="M1964 4751 c-81 -37 -134 -133 -134 -243 0 -85 17 -141 58 -189 49
-57 100 -79 187 -79 109 0 175 39 210 123 l15 37 -51 0 c-43 0 -57 -5 -85 -30
-84 -73 -192 -38 -218 72 l-6 28 177 2 178 3 3 38 c2 21 -4 63 -13 95 -20 68
-91 145 -145 155 -59 12 -134 7 -176 -12z m179 -98 c17 -15 47 -71 47 -88 0
-3 -54 -5 -120 -5 -81 0 -120 4 -120 11 0 6 7 26 15 44 15 29 33 44 75 59 26
9 82 -2 103 -21z"/>
<path d="M3942 4749 c-92 -46 -137 -140 -130 -268 6 -90 30 -145 85 -190 46
-38 89 -51 168 -51 75 0 128 24 176 77 48 53 63 101 63 195 -1 104 -36 178
-108 223 -43 26 -61 30 -130 33 -67 2 -88 -1 -124 -19z m193 -101 c37 -29 55
-76 55 -143 0 -72 -20 -119 -62 -145 -84 -51 -177 -7 -198 96 -25 120 31 214
129 214 34 0 56 -6 76 -22z"/>
<path d="M4500 4759 c-59 -25 -100 -85 -100 -148 0 -84 31 -111 179 -151 52
-14 98 -32 104 -41 15 -24 1 -64 -28 -77 -59 -27 -126 -9 -156 43 -19 32 -25
35 -65 35 -43 0 -44 -1 -44 -34 0 -18 10 -48 23 -67 69 -104 287 -108 361 -6
16 22 21 44 21 94 0 60 -2 67 -31 92 -19 18 -57 35 -100 45 -150 39 -149 38
-152 73 -3 29 1 35 31 49 48 23 100 12 129 -26 17 -24 29 -30 57 -30 59 0 66
10 43 62 -30 69 -69 91 -166 95 -45 2 -92 -2 -106 -8z"/>
<path d="M6185 4760 c-23 -9 -60 -47 -68 -70 -3 -8 -6 4 -6 28 l-1 42 -55 0
-55 0 0 -260 0 -260 55 0 55 0 0 158 c0 129 3 163 18 192 20 41 71 70 125 70
l37 0 0 55 0 55 -42 -1 c-24 0 -52 -4 -63 -9z"/>
<path d="M6491 4759 c-51 -20 -85 -54 -113 -116 -28 -60 -30 -70 -26 -156 3
-79 8 -100 31 -140 16 -26 47 -60 69 -75 35 -23 54 -28 124 -31 70 -2 91 0
129 19 45 22 86 69 100 118 6 21 4 22 -48 22 -47 0 -57 -3 -71 -25 -24 -36
-83 -51 -137 -34 -34 11 -49 23 -66 54 -43 76 -45 75 145 75 92 0 173 4 181 9
18 11 7 108 -18 166 -19 43 -77 100 -118 116 -31 12 -151 11 -182 -2z m149
-94 c30 -15 60 -61 60 -90 0 -13 -18 -15 -119 -15 l-120 0 10 28 c14 38 31 59
65 77 37 19 67 19 104 0z"/>
<path d="M7035 4751 c-52 -23 -88 -60 -116 -119 -19 -38 -23 -64 -23 -137 0
-103 18 -150 78 -202 48 -43 95 -56 181 -51 62 3 80 8 116 33 45 32 73 71 84
118 7 27 7 27 -43 27 -45 0 -54 -4 -90 -40 -34 -35 -46 -40 -84 -40 -83 0
-130 61 -130 166 1 106 47 164 131 164 39 0 52 -5 73 -27 14 -16 29 -38 33
-51 6 -21 12 -23 58 -20 51 3 52 3 49 33 -5 50 -52 116 -101 142 -56 29 -157
32 -216 4z"/>
<path d="M7962 4755 c-102 -46 -146 -121 -147 -250 0 -67 4 -89 28 -137 44
-90 110 -128 221 -128 150 1 240 100 241 266 0 70 -4 88 -30 139 -43 85 -101
119 -204 123 -51 1 -87 -3 -109 -13z m177 -110 c62 -53 76 -175 27 -248 -57
-84 -183 -74 -222 19 -18 43 -18 135 0 178 32 77 132 103 195 51z"/>
<path d="M8495 4756 c-16 -8 -43 -28 -59 -45 -24 -25 -31 -42 -34 -89 -7 -94
33 -127 202 -170 75 -18 93 -35 83 -74 -14 -55 -131 -64 -174 -13 -13 14 -23
33 -23 41 0 10 -13 14 -51 14 l-52 0 6 -42 c12 -87 85 -138 201 -138 125 0
196 53 203 152 7 96 -33 133 -178 163 -93 20 -109 29 -109 64 0 39 24 56 83
56 43 0 52 -4 77 -33 25 -30 30 -32 69 -26 34 5 41 10 41 29 0 32 -40 85 -80
106 -42 23 -159 25 -205 5z"/>
<path d="M3000 4500 l0 -260 55 0 55 0 0 260 0 260 -55 0 -55 0 0 -260z"/>
<path d="M5760 4500 l0 -260 55 0 55 0 0 260 0 260 -55 0 -55 0 0 -260z"/>
<path d="M4500 3470 l0 -360 60 0 60 0 0 166 c0 137 3 171 17 194 32 55 120
69 170 26 l28 -24 3 -181 3 -181 55 0 55 0 -3 208 c-3 180 -5 212 -21 235 -22
34 -71 65 -116 73 -49 10 -135 -13 -165 -43 l-26 -26 0 137 0 136 -60 0 -60 0
0 -360z"/>
<path d="M3510 3808 c0 -13 74 -296 146 -560 l38 -138 66 0 66 0 74 256 c70
245 74 255 85 223 6 -19 38 -134 71 -256 l59 -223 62 0 c61 0 62 0 72 33 22
70 181 660 181 674 0 1 -26 3 -58 3 l-58 0 -64 -257 c-34 -142 -66 -262 -70
-266 -7 -7 -24 52 -92 308 -16 61 -35 134 -44 163 l-15 52 -54 0 -54 0 -14
-52 c-8 -29 -41 -147 -72 -263 -68 -251 -64 -239 -71 -232 -3 3 -36 126 -73
274 l-67 268 -57 3 c-42 2 -57 0 -57 -10z"/>
<path d="M6692 3793 c-5 -15 -49 -134 -97 -263 -48 -129 -102 -277 -121 -328
l-34 -93 62 3 61 3 27 80 27 80 140 3 141 3 16 -43 c9 -24 22 -61 29 -83 l14
-40 62 -3 c57 -3 62 -1 57 15 -4 10 -62 169 -129 353 l-123 335 -61 3 c-59 3
-61 2 -71 -25z m126 -265 l52 -148 -105 0 c-58 0 -105 3 -105 6 0 6 74 228 91
273 5 13 11 22 13 20 2 -2 26 -70 54 -151z"/>
<path d="M5695 3736 c-39 -12 -40 -14 -43 -64 l-3 -52 -40 0 -40 0 3 -47 3
-48 38 2 37 2 0 -145 c0 -163 11 -222 47 -256 21 -20 35 -23 101 -23 l77 0 3
47 3 47 -48 3 c-45 3 -49 5 -60 38 -7 19 -12 90 -12 158 l-1 122 66 0 65 0 -3
48 c-2 39 -6 47 -23 48 -11 1 -39 2 -62 3 l-43 1 0 65 c0 71 1 71 -65 51z"/>
<path d="M2055 3616 c-22 -9 -50 -28 -62 -43 l-23 -28 0 38 0 37 -55 0 -55 0
0 -355 0 -355 55 0 55 0 0 132 0 132 28 -26 c41 -39 65 -48 127 -48 72 0 114
18 154 66 104 127 71 372 -60 439 -44 23 -117 28 -164 11z m125 -121 c72 -69
60 -238 -20 -280 -75 -39 -159 -3 -181 78 -14 52 -6 140 16 173 44 67 131 81
185 29z"/>
<path d="M2581 3616 c-167 -55 -218 -319 -86 -451 53 -54 99 -68 198 -64 100
6 149 37 192 124 26 52 30 70 29 140 -1 119 -45 194 -142 244 -36 19 -142 23
-191 7z m166 -118 c82 -75 65 -243 -29 -291 -63 -32 -140 3 -167 76 -17 44
-13 137 7 177 34 69 134 89 189 38z"/>
<path d="M3193 3615 c-17 -7 -40 -26 -50 -41 l-18 -28 -5 34 c-5 35 -6 35 -55
35 l-50 0 -3 -252 -2 -253 55 0 55 0 0 138 c0 75 5 153 10 173 15 55 50 82
115 87 l55 4 0 59 0 59 -37 0 c-21 -1 -52 -7 -70 -15z"/>
<path d="M5211 3615 c-53 -17 -88 -48 -112 -100 -31 -66 -27 -75 31 -75 44 0
52 3 60 24 24 64 119 88 165 41 32 -31 33 -72 3 -85 -13 -5 -58 -13 -100 -19
-94 -11 -145 -35 -175 -80 -42 -63 -21 -153 46 -198 65 -44 216 -23 237 32 9
22 18 18 32 -15 15 -33 58 -47 111 -35 29 6 31 10 31 50 0 38 -3 44 -22 47
-22 3 -23 7 -28 158 -5 167 -10 184 -63 224 -59 45 -136 56 -216 31z m169
-310 c0 -80 -77 -133 -163 -111 -31 7 -50 48 -37 80 12 32 21 37 115 57 44 9
81 17 83 18 1 0 2 -19 2 -44z"/>
<path d="M6087 3616 c-49 -18 -76 -42 -93 -83 -30 -69 -9 -149 44 -177 16 -8
66 -24 113 -36 119 -31 143 -57 94 -105 -44 -44 -142 -30 -173 25 -15 27 -22
30 -65 30 l-49 0 7 -32 c11 -50 46 -96 91 -118 59 -29 184 -28 239 3 84 47
109 170 47 232 -33 33 -55 42 -152 62 -105 21 -133 50 -90 93 28 28 108 28
138 0 12 -12 22 -25 22 -30 0 -6 23 -10 51 -10 l52 0 -7 33 c-9 45 -36 79 -82
102 -49 24 -137 30 -187 11z"/>
<path d="M7362 3616 c-17 -8 -43 -27 -57 -42 l-25 -27 0 37 0 36 -55 0 -55 0
0 -355 0 -355 55 0 55 0 0 131 0 131 28 -30 c51 -54 181 -58 247 -7 130 98
120 366 -17 468 -34 25 -132 32 -176 13z m109 -109 c40 -27 58 -71 58 -145 1
-99 -46 -162 -121 -162 -83 0 -128 55 -128 157 0 71 22 119 69 150 43 29 79
29 122 0z"/>
<path d="M7965 3619 c-17 -4 -45 -23 -63 -40 l-32 -31 0 36 0 36 -55 0 -55 0
0 -355 0 -355 55 0 55 0 0 133 c1 126 1 131 18 112 37 -44 64 -55 135 -55 95
0 148 33 193 120 26 51 31 181 10 254 -34 117 -145 179 -261 145z m116 -125
c51 -49 64 -146 30 -221 -48 -105 -195 -96 -232 14 -15 46 -6 146 16 179 44
68 131 81 186 28z"/>
</g>
</svg>
