<?xml version="1.0" standalone="no"?>
<!DOCTYPE svg PUBLIC "-//W3C//DTD SVG 20010904//EN"
 "http://www.w3.org/TR/2001/REC-SVG-20010904/DTD/svg10.dtd">
<svg version="1.0" xmlns="http://www.w3.org/2000/svg"
 width="1024.000000pt" height="1536.000000pt" viewBox="0 0 1024.000000 1536.000000"
 preserveAspectRatio="xMidYMid meet">

<g transform="translate(0.000000,1536.000000) scale(0.100000,-0.100000)"
fill="#000000" stroke="none">
<path d="M4780 13520 c-1006 -80 -1958 -503 -2654 -1180 -661 -642 -1071
-1418 -1225 -2315 -64 -372 -78 -855 -36 -1220 93 -806 420 -1574 933 -2192
505 -608 1215 -1099 1937 -1339 361 -119 647 -177 1035 -209 782 -65 1561 80
2240 416 827 409 1507 1072 1922 1875 363 704 517 1470 453 2261 -85 1042
-480 1922 -1188 2642 -267 271 -500 455 -816 645 -570 342 -1175 546 -1801
606 -149 15 -664 21 -800 10z m600 -240 c742 -54 1343 -249 1951 -631 765
-481 1353 -1236 1632 -2094 183 -564 245 -1207 172 -1785 -18 -138 -33 -217
-79 -415 -173 -751 -611 -1485 -1197 -2009 -672 -601 -1428 -937 -2319 -1032
-188 -20 -618 -23 -800 -6 -505 49 -907 159 -1363 374 -426 200 -807 469
-1141 804 -592 594 -979 1351 -1110 2169 -34 217 -46 377 -46 625 0 1144 420
2137 1230 2906 296 281 641 519 1005 694 151 72 438 187 573 229 295 91 639
154 957 174 120 8 411 6 535 -3z"/>
<path d="M4662 12840 c-42 -10 -89 -53 -113 -105 -16 -34 -19 -66 -19 -226 0
-181 1 -186 27 -238 19 -39 38 -61 70 -80 l43 -26 -2 -290 c-3 -271 -4 -293
-24 -336 -29 -63 -73 -110 -184 -198 -235 -186 -334 -317 -392 -517 -22 -77
-22 -91 -26 -692 l-3 -614 -77 74 c-75 70 -107 95 -201 153 l-45 28 53 45 c87
75 110 151 62 206 -45 53 -219 96 -385 96 -130 0 -210 -13 -308 -51 -44 -17
-81 -29 -83 -27 -9 8 74 189 113 246 l43 62 55 -6 c45 -6 58 -4 75 12 56 51
64 121 20 174 -68 83 -194 110 -263 58 -67 -51 -185 -261 -253 -451 l-17 -49
-31 39 c-81 101 -218 205 -330 252 -100 41 -220 71 -288 71 -71 0 -114 -31
-125 -87 -9 -48 24 -150 87 -272 27 -52 48 -95 47 -96 -2 0 -32 -7 -68 -14
-99 -19 -229 -72 -326 -132 -103 -63 -260 -212 -324 -308 -90 -135 -162 -310
-192 -468 -21 -108 -17 -428 6 -533 88 -404 354 -738 744 -934 225 -113 435
-164 713 -173 375 -13 678 67 952 250 103 69 255 214 309 296 l36 53 4 -218
c4 -200 6 -224 27 -277 46 -117 132 -192 247 -216 32 -6 128 -11 214 -11 l157
0 11 -67 c34 -203 122 -381 257 -517 102 -104 187 -164 328 -231 262 -125 550
-185 885 -185 449 0 889 109 1368 340 399 191 811 491 1021 743 181 217 266
390 324 657 31 145 38 419 15 581 -61 415 -217 751 -465 1000 -121 121 -230
202 -368 271 -223 113 -376 149 -628 149 -417 0 -737 -144 -1108 -501 l-126
-121 -3 658 c-5 729 -3 705 -73 860 -66 144 -156 247 -332 380 -130 98 -166
136 -202 213 -26 55 -26 57 -29 342 -3 285 -3 286 18 293 31 10 88 63 108 99
21 40 31 367 13 434 -15 56 -72 119 -119 132 -44 12 -870 12 -920 0z m816
-332 l3 -108 -361 0 -360 0 0 110 0 110 358 -2 357 -3 3 -107z m-161 -348 l22
0 3 -302 c3 -299 3 -304 30 -376 14 -40 40 -94 58 -121 35 -56 123 -144 190
-192 152 -109 239 -203 292 -315 57 -121 58 -132 58 -926 l0 -727 -52 -39
c-29 -22 -80 -58 -113 -80 l-60 -41 -5 622 c-5 664 -4 645 -56 686 -26 21 -35
21 -556 21 -453 0 -533 -2 -558 -15 -62 -32 -60 1 -60 -840 0 -664 2 -769 15
-794 30 -60 37 -61 292 -61 128 0 233 -3 232 -7 0 -5 -29 -32 -65 -62 -133
-111 -255 -313 -291 -481 -14 -68 -18 -133 -18 -317 l0 -233 -42 -6 c-70 -10
-255 0 -288 16 -18 9 -39 33 -53 60 l-22 45 2 1530 3 1530 23 64 c25 69 77
158 121 205 14 16 89 79 166 141 160 127 223 193 259 270 53 111 58 150 63
457 5 256 7 287 22 290 12 3 217 2 388 -2z m-2880 -2012 c124 -70 249 -215
309 -360 50 -122 101 -164 167 -139 15 6 62 39 105 75 150 124 258 170 389
164 l68 -3 -24 -22 c-37 -35 -171 -100 -221 -108 -62 -10 -97 -30 -115 -65
-22 -43 -11 -75 55 -155 76 -94 147 -215 125 -215 -3 0 -45 21 -93 47 -105 56
-195 118 -242 168 -39 40 -79 65 -108 65 -10 0 -58 -16 -106 -36 -49 -19 -130
-46 -180 -59 -96 -24 -216 -39 -216 -25 0 20 124 120 191 153 84 43 98 52 122
87 39 56 16 105 -92 193 -74 61 -137 137 -191 230 -27 45 -16 46 57 5z m3063
-632 l0 -613 -31 -7 c-17 -3 -191 -6 -385 -6 l-354 0 0 620 0 620 385 0 385 0
0 -614z m2151 279 c237 -44 435 -150 596 -318 114 -119 186 -238 237 -391 23
-68 46 -225 46 -314 0 -151 -65 -377 -148 -517 -203 -342 -642 -664 -1229
-900 -566 -229 -1204 -278 -1651 -129 -174 58 -317 146 -421 260 -113 124
-164 257 -165 434 -1 197 55 331 199 476 110 110 198 169 425 284 412 208 600
342 915 656 191 191 293 271 433 342 182 93 337 130 543 131 84 1 169 -5 220
-14z m-5326 -38 c-95 -69 -182 -175 -230 -278 -44 -94 -28 -162 48 -201 33
-17 64 -22 153 -26 142 -6 248 9 401 54 l122 36 58 -44 c88 -66 147 -101 273
-162 220 -105 312 -124 368 -73 67 61 44 237 -59 454 -21 45 -39 85 -39 89 0
4 25 4 56 1 69 -7 184 -60 262 -121 241 -187 312 -369 299 -764 -6 -178 -19
-248 -71 -370 -95 -224 -287 -423 -525 -544 -450 -229 -1072 -178 -1496 124
-156 112 -288 276 -368 461 -52 121 -76 229 -84 372 -22 421 174 776 513 931
75 34 257 83 309 83 l40 0 -30 -22z m6371 -1454 c-17 -262 -98 -489 -244 -680
-63 -83 -237 -259 -337 -340 -93 -77 -236 -172 -398 -267 -655 -382 -1328
-532 -1937 -430 -116 19 -320 84 -415 131 -212 106 -366 280 -423 478 -26 89
-34 135 -23 135 4 0 27 -22 49 -49 23 -27 77 -76 119 -108 238 -179 579 -273
988 -273 483 0 931 108 1412 340 640 309 1087 730 1193 1123 7 26 15 47 18 47
3 0 2 -48 -2 -107z"/>
<path d="M7305 9639 c-206 -27 -411 -130 -553 -278 -74 -77 -162 -212 -196
-301 -56 -147 -94 -217 -144 -260 -88 -78 -183 -113 -398 -144 -375 -55 -664
-215 -807 -448 -67 -109 -82 -163 -82 -293 0 -131 15 -183 80 -276 198 -284
709 -397 1300 -288 495 91 970 300 1356 595 235 180 390 395 451 622 29 110
28 306 -1 417 -101 381 -430 639 -836 659 -55 3 -131 1 -170 -5z m292 -248
c117 -24 217 -77 305 -159 121 -114 182 -236 198 -392 31 -299 -126 -550 -505
-802 -315 -211 -657 -356 -1015 -432 -205 -43 -285 -51 -515 -51 -189 1 -233
4 -313 23 -188 44 -340 140 -379 240 -42 109 -4 251 91 347 125 125 374 235
598 265 235 31 391 96 514 212 87 83 109 118 158 246 57 148 100 218 195 312
115 114 213 165 376 195 100 19 187 18 292 -4z"/>
<path d="M7330 9121 c-123 -26 -246 -126 -301 -244 -31 -66 -34 -80 -34 -167
0 -84 3 -102 28 -152 70 -144 245 -222 422 -189 167 31 304 170 335 339 37
209 -127 405 -350 417 -36 2 -81 1 -100 -4z m150 -241 c43 -22 80 -80 80 -124
0 -90 -88 -165 -193 -166 -100 0 -170 75 -152 166 7 41 67 111 110 130 44 19
110 17 155 -6z"/>
<path d="M1813 9275 c-98 -42 -174 -328 -145 -551 23 -183 58 -244 139 -244
36 0 50 6 73 29 40 40 45 71 26 157 -30 138 -19 279 33 409 47 117 38 171 -35
201 -41 17 -50 17 -91 -1z"/>
<path d="M3492 4510 c-99 -21 -194 -98 -249 -202 -26 -50 -28 -60 -28 -178 0
-116 2 -129 28 -181 32 -66 94 -126 169 -166 49 -25 62 -28 163 -28 101 0 115
2 167 29 70 34 131 98 166 174 24 51 27 68 27 172 0 105 -2 120 -28 176 -35
75 -104 145 -177 178 -63 29 -170 40 -238 26z m168 -175 c69 -36 110 -113 110
-207 -1 -168 -137 -265 -278 -197 -140 68 -146 327 -8 401 53 28 123 29 176 3z"/>
<path d="M5827 4510 c-101 -26 -206 -112 -250 -207 -18 -41 -22 -66 -22 -168
0 -109 2 -125 27 -177 35 -76 98 -142 167 -175 50 -25 67 -28 161 -28 93 0
111 3 160 26 30 15 70 41 88 60 34 33 72 98 72 121 0 7 -34 25 -75 39 l-74 25
-23 -35 c-40 -60 -71 -76 -146 -76 -84 0 -124 25 -158 99 -31 65 -33 171 -5
232 55 120 228 141 298 36 12 -18 23 -38 25 -44 4 -12 145 19 154 34 8 12 -38
107 -70 145 -43 50 -139 93 -222 98 -38 2 -86 0 -107 -5z"/>
<path d="M7205 4507 c-148 -39 -252 -160 -274 -319 -25 -180 52 -338 199 -407
48 -23 68 -26 160 -26 93 0 112 3 162 27 76 35 142 98 175 167 26 52 28 65 28
181 0 121 -1 127 -32 185 -63 120 -168 190 -298 199 -42 3 -90 0 -120 -7z
m181 -176 c66 -40 104 -117 104 -208 0 -129 -89 -221 -206 -211 -104 9 -169
81 -181 201 -6 61 23 151 60 185 58 55 162 70 223 33z"/>
<path d="M7959 4514 c-15 -3 -51 -19 -80 -37 -75 -45 -113 -117 -106 -199 3
-32 14 -73 24 -90 27 -47 97 -91 195 -122 109 -35 128 -48 128 -91 0 -76 -107
-103 -175 -44 -19 17 -35 40 -35 50 0 23 -19 24 -102 7 -65 -13 -69 -22 -42
-86 37 -90 121 -143 235 -150 99 -6 165 15 224 72 91 87 87 248 -9 321 -19 15
-76 39 -126 55 -119 37 -140 51 -140 95 0 41 29 65 78 65 45 0 67 -13 82 -51
13 -31 14 -31 69 -24 100 12 103 13 95 49 -16 73 -59 128 -132 165 -25 13
-141 22 -183 15z"/>
<path d="M1930 4136 l0 -376 85 0 85 0 0 130 0 130 93 0 c76 0 101 4 143 24
87 41 126 109 127 221 0 105 -38 170 -128 218 -35 19 -61 22 -222 25 l-183 4
0 -376z m341 185 c31 -31 36 -64 18 -105 -15 -32 -56 -48 -127 -50 l-57 -1 -3
93 -3 92 71 0 c66 0 74 -2 101 -29z"/>
<path d="M2580 4135 l0 -375 85 0 85 0 0 136 0 135 33 -3 c30 -3 35 -10 100
-135 l68 -133 95 0 96 0 -25 43 c-113 197 -140 251 -128 255 26 9 84 68 97 99
8 18 14 65 14 104 0 58 -5 80 -26 120 -54 99 -136 129 -351 129 l-143 0 0
-375z m309 200 c33 -17 41 -33 41 -85 0 -57 -34 -80 -116 -80 l-64 0 0 90 0
90 55 0 c31 0 69 -7 84 -15z"/>
<path d="M4060 4135 l0 -377 183 4 c179 3 183 4 248 34 114 54 180 146 198
277 26 185 -61 347 -217 408 -49 19 -82 23 -234 27 l-178 4 0 -377z m322 205
c81 -23 137 -102 138 -195 0 -71 -16 -120 -53 -162 -42 -48 -82 -63 -167 -63
l-70 0 0 215 0 215 58 0 c31 0 74 -5 94 -10z"/>
<path d="M4812 4243 c4 -218 8 -277 22 -314 40 -108 129 -168 260 -176 119 -8
183 13 250 80 80 81 86 110 86 420 l0 257 -85 0 -85 0 0 -245 c0 -274 -5 -300
-62 -335 -67 -40 -158 -16 -195 52 -16 29 -18 65 -21 281 l-3 247 -86 0 -85 0
4 -267z"/>
<path d="M6309 4508 c0 -2 -1 -38 -2 -81 l-2 -77 98 0 97 0 0 -295 0 -295 85
0 85 0 0 295 0 295 105 0 105 0 0 80 0 80 -285 0 c-157 0 -285 -1 -286 -2z"/>
<path d="M4630 3501 c-59 -14 -87 -28 -125 -67 -48 -48 -65 -90 -65 -160 0
-114 48 -163 211 -219 120 -41 145 -62 133 -109 -9 -37 -41 -56 -95 -56 -36 0
-55 6 -78 26 -17 14 -31 31 -31 37 0 7 -4 18 -9 26 -7 11 -21 11 -85 -4 l-77
-17 7 -31 c10 -49 29 -80 72 -119 61 -55 115 -71 221 -66 77 4 96 8 137 34 82
50 122 132 109 225 -13 94 -59 136 -203 188 -50 18 -102 41 -116 52 -44 35
-30 90 28 109 45 14 93 -8 110 -52 10 -28 13 -29 56 -23 104 14 110 16 110 39
-1 29 -33 96 -60 125 -49 50 -169 80 -250 62z"/>
<path d="M5343 3499 c-182 -35 -294 -181 -295 -383 0 -133 40 -222 135 -300
68 -56 131 -76 235 -76 106 0 167 20 229 74 38 34 93 118 93 144 0 9 -132 52
-157 52 -7 0 -13 -6 -13 -14 0 -26 -64 -84 -106 -95 -129 -35 -234 63 -234
218 0 129 53 207 152 225 73 13 139 -22 183 -99 10 -17 14 -17 88 0 86 19 89
23 58 90 -22 48 -83 110 -131 135 -36 18 -137 41 -174 39 -12 -1 -40 -5 -63
-10z"/>
<path d="M6122 3500 c-120 -25 -209 -95 -264 -209 -31 -62 -33 -73 -33 -171 0
-87 5 -115 24 -165 29 -71 103 -149 176 -185 44 -22 63 -25 165 -25 105 0 120
2 171 28 69 33 132 99 167 175 24 51 27 68 27 172 0 105 -2 120 -27 170 -43
87 -90 135 -171 174 -79 38 -161 51 -235 36z m111 -161 c21 -5 54 -24 74 -42
50 -44 73 -98 73 -177 0 -133 -75 -220 -188 -220 -134 0 -218 115 -192 262 18
100 53 147 127 173 47 17 58 18 106 4z"/>
<path d="M6840 3494 c-109 -30 -170 -109 -170 -219 0 -113 51 -165 223 -224
58 -20 101 -41 107 -52 17 -30 11 -64 -13 -87 -50 -47 -171 -15 -184 48 -3 19
-12 30 -22 30 -20 -1 -141 -27 -145 -31 -9 -11 27 -99 55 -132 49 -59 99 -80
205 -85 77 -4 98 -1 142 18 56 24 106 74 128 126 20 47 17 131 -5 180 -26 57
-69 86 -186 129 -112 40 -135 57 -135 95 0 32 26 58 66 65 37 7 91 -25 100
-60 3 -14 12 -25 18 -25 23 0 131 23 138 29 14 12 -15 91 -48 129 -58 68 -170
95 -274 66z"/>
<path d="M2630 3120 l0 -370 80 0 80 0 0 140 0 139 121 3 120 3 4 68 4 67
-125 0 -125 0 3 83 3 82 145 1 145 1 0 74 0 74 -227 3 -228 2 0 -370z"/>
<path d="M3200 3120 l0 -370 85 0 85 0 0 130 0 130 33 0 c32 0 34 -3 97 -129
l65 -129 98 -1 98 -1 -29 53 c-16 28 -47 84 -69 122 -22 39 -46 81 -54 94 -12
20 -12 24 0 29 32 11 91 76 101 110 15 54 12 147 -5 190 -9 20 -33 54 -53 75
-54 55 -105 67 -294 67 l-158 0 0 -370z m325 195 c19 -18 25 -35 25 -68 0 -64
-31 -90 -115 -95 l-65 -4 0 96 0 96 65 0 c57 0 69 -3 90 -25z"/>
<path d="M3860 3120 l0 -370 230 0 230 0 0 75 0 75 -145 0 -145 0 0 75 0 75
125 0 125 0 0 70 0 70 -125 0 -126 0 3 73 3 72 140 1 140 1 3 44 c2 24 1 58
-3 76 l-6 33 -224 0 -225 0 0 -370z"/>
<path d="M7470 3487 c0 -8 232 -442 241 -451 5 -6 9 -72 9 -148 l0 -138 80 0
80 0 0 139 0 139 76 144 c42 78 96 178 120 220 24 43 44 82 44 88 0 6 -36 10
-93 10 l-94 0 -68 -142 -69 -142 -53 115 c-84 183 -64 164 -176 167 -53 1 -97
1 -97 -1z"/>
<path d="M3258 2487 c-66 -19 -151 -78 -186 -129 -51 -75 -66 -131 -66 -253 0
-101 2 -115 29 -169 36 -76 95 -135 171 -172 51 -25 70 -29 144 -29 146 0 249
57 304 167 l26 53 -67 22 c-83 29 -87 28 -101 -1 -31 -69 -134 -103 -217 -71
-77 29 -115 100 -115 215 0 132 74 220 185 220 59 0 108 -26 133 -71 34 -62
31 -61 105 -38 77 24 79 29 43 104 -26 58 -81 109 -144 137 -57 26 -180 33
-244 15z"/>
<path d="M4660 2491 c-132 -43 -199 -162 -158 -282 27 -80 73 -114 216 -160
85 -27 112 -49 112 -89 0 -44 -34 -70 -91 -70 -54 0 -90 23 -109 70 -8 20 -18
29 -29 26 -9 -3 -42 -10 -73 -17 -64 -13 -69 -23 -44 -83 39 -94 134 -150 256
-150 161 0 259 86 260 226 0 124 -54 180 -228 234 -86 26 -112 46 -112 86 0
41 32 68 80 68 41 0 70 -19 95 -64 9 -16 16 -16 82 -5 71 12 73 12 66 38 -17
72 -55 121 -116 152 -43 23 -164 34 -207 20z"/>
<path d="M6583 2486 c-143 -47 -230 -153 -252 -311 -26 -181 51 -335 204 -410
53 -26 70 -30 155 -30 86 0 101 3 160 31 101 50 155 110 190 214 19 54 21 80
17 157 -3 78 -9 103 -36 157 -61 124 -175 198 -316 203 -49 2 -96 -3 -122 -11z
m215 -178 c117 -78 117 -308 1 -385 -106 -70 -246 -19 -288 106 -26 77 -5 198
42 250 45 49 78 62 143 59 46 -3 72 -11 102 -30z"/>
<path d="M7330 2491 c-144 -44 -208 -181 -144 -309 31 -62 67 -86 202 -133 98
-34 127 -57 120 -100 -5 -33 -50 -62 -97 -62 -50 0 -88 24 -106 67 l-14 33
-68 -14 c-37 -8 -73 -16 -80 -18 -19 -6 12 -86 52 -132 50 -59 121 -87 220
-87 70 0 87 4 135 30 72 39 112 95 118 168 6 78 -4 121 -40 162 -37 42 -66 58
-177 95 -46 16 -93 36 -103 45 -44 40 -5 114 60 114 46 0 71 -16 88 -56 12
-29 17 -32 37 -25 12 5 46 12 74 16 51 7 53 8 47 33 -19 79 -67 134 -141 162
-54 20 -136 25 -183 11z"/>
<path d="M3975 2453 c-9 -21 -54 -144 -101 -273 -47 -129 -101 -275 -120 -324
-19 -48 -34 -92 -34 -97 0 -5 39 -9 88 -9 l87 0 23 75 22 75 130 0 130 0 22
-75 23 -75 94 0 c85 0 93 2 86 18 -7 19 -136 365 -216 580 l-52 142 -84 0 -83
0 -15 -37z m175 -400 c0 -2 -34 -3 -75 -3 -41 0 -75 3 -75 7 0 4 16 59 36 122
l37 116 38 -120 c21 -66 39 -121 39 -122z"/>
<path d="M5130 2120 l0 -370 235 0 236 0 -3 73 -3 72 -152 3 -153 3 0 74 0 75
130 0 130 0 0 70 0 70 -130 0 -130 0 0 75 0 75 145 0 145 0 0 75 0 75 -225 0
-225 0 0 -370z"/>
<path d="M5720 2120 l0 -370 80 0 79 0 3 133 3 132 30 0 c28 0 34 -7 100 -132
l70 -133 93 0 93 0 -32 58 c-18 31 -55 95 -82 142 l-49 84 23 15 c51 33 87 80
99 132 34 142 -39 270 -171 298 -27 6 -115 11 -194 11 l-145 0 0 -370z m294
216 c40 -16 61 -61 52 -109 -10 -53 -37 -71 -117 -75 l-69 -4 0 94 c0 52 3 98
7 101 11 12 92 7 127 -7z"/>
</g>
</svg>
