<?xml version="1.0" standalone="no"?>
<!DOCTYPE svg PUBLIC "-//W3C//DTD SVG 20010904//EN"
 "http://www.w3.org/TR/2001/REC-SVG-20010904/DTD/svg10.dtd">
<svg version="1.0" xmlns="http://www.w3.org/2000/svg"
 width="1024.000000pt" height="1536.000000pt" viewBox="0 0 1024.000000 1536.000000"
 preserveAspectRatio="xMidYMid meet">

<g transform="translate(0.000000,1536.000000) scale(0.100000,-0.100000)"
fill="#000000" stroke="none">
<path d="M7785 13563 c-16 -2 -73 -15 -125 -28 -528 -134 -918 -462 -1047
-882 -24 -80 -27 -105 -29 -268 -1 -99 -6 -215 -10 -258 -4 -51 -2 -108 6
-162 l13 -84 -29 -43 c-27 -40 -29 -41 -31 -18 -7 59 -27 139 -49 191 l-23 57
20 42 c11 23 30 78 41 122 28 112 23 313 -12 408 -56 159 -153 307 -258 398
-254 219 -631 353 -1002 356 -170 1 -212 -12 -243 -76 -16 -33 -17 -48 -8
-150 32 -345 183 -711 383 -932 118 -130 307 -249 469 -293 85 -24 329 -24
404 0 38 13 51 14 57 4 19 -29 30 -89 35 -188 4 -85 2 -117 -12 -160 -31 -94
-99 -194 -212 -312 -91 -94 -113 -126 -113 -162 0 -43 33 -83 74 -91 44 -8 70
7 126 70 174 198 264 271 377 306 78 24 240 53 253 45 6 -3 10 -20 10 -37 0
-51 30 -157 66 -236 119 -260 346 -442 639 -512 146 -35 240 -43 414 -37 164
5 247 17 431 58 224 51 246 96 159 317 -151 379 -464 728 -756 840 -114 44
-186 55 -310 49 -197 -9 -398 -88 -529 -207 -36 -33 -48 -37 -111 -43 -39 -4
-105 -14 -147 -23 -43 -9 -80 -14 -82 -11 -3 3 18 39 46 82 37 54 56 75 67 71
107 -42 201 -32 342 32 58 27 138 60 176 72 202 65 390 206 517 388 97 140
184 388 212 607 33 254 28 560 -10 640 -26 55 -83 73 -189 58z m31 -260 c16
-154 -17 -461 -70 -645 -71 -242 -218 -448 -384 -536 -34 -18 -62 -32 -62 -30
0 2 15 46 34 98 57 158 72 365 30 411 -15 17 -15 21 9 61 14 24 66 92 116 153
50 60 93 122 97 138 12 56 -47 105 -112 92 -57 -10 -294 -275 -325 -362 -8
-25 -18 -32 -62 -42 -67 -15 -197 -80 -266 -132 -29 -22 -55 -38 -58 -35 -11
10 29 142 66 222 54 116 112 197 205 289 166 165 407 292 696 369 81 21 78 23
86 -51z m-2306 -129 c380 -75 648 -240 768 -472 62 -119 75 -176 70 -304 -3
-60 -9 -113 -15 -119 -7 -7 -27 11 -63 58 -77 98 -277 299 -408 411 -184 157
-221 174 -275 132 -68 -53 -46 -104 96 -222 198 -165 517 -490 517 -526 0 -15
-101 -25 -194 -19 -157 10 -326 95 -462 231 -108 109 -191 244 -258 422 -37
99 -83 285 -92 373 l-7 73 99 -7 c54 -4 155 -18 224 -31z m1679 -799 c-24
-216 -112 -375 -230 -415 -30 -10 -56 -17 -58 -15 -2 2 16 26 39 52 52 60 63
85 49 120 -16 42 -39 63 -71 63 -32 0 -98 -38 -134 -77 l-24 -26 0 32 c0 72
104 203 220 276 52 33 202 88 211 77 4 -4 3 -43 -2 -87z m446 -680 c224 -48
471 -248 628 -511 43 -72 137 -264 137 -281 0 -38 -380 -90 -570 -78 -414 27
-673 205 -780 537 -12 37 -20 74 -18 81 9 36 549 -199 724 -315 58 -39 112
-68 126 -68 64 0 105 78 74 139 -38 73 -388 262 -649 350 -91 31 -156 58 -154
64 5 15 104 53 197 77 92 23 192 25 285 5z"/>
<path d="M3005 12731 c-27 -16 -76 -54 -107 -84 -72 -69 -74 -90 -19 -208 49
-106 76 -185 95 -272 l14 -68 -27 5 c-14 3 -55 10 -91 16 -157 24 -430 102
-577 164 -34 14 -76 26 -93 26 -41 0 -80 -39 -80 -80 0 -35 45 -128 101 -211
l37 -55 -75 -23 c-92 -27 -212 -80 -313 -139 -342 -201 -577 -542 -667 -970
-24 -115 -27 -148 -27 -342 0 -197 2 -226 28 -345 81 -387 241 -676 522 -945
344 -329 819 -521 1412 -570 64 -5 156 -10 203 -10 l86 0 41 -82 c126 -254
386 -430 784 -532 440 -113 1134 -163 1898 -137 878 30 1559 116 2057 262 361
105 636 279 752 477 64 109 76 163 76 342 -1 140 -4 164 -28 245 -37 120 -123
290 -200 398 -411 570 -1231 1006 -2104 1117 -166 22 -474 31 -683 20 -193 -9
-401 -30 -463 -45 l-27 -7 0 69 c0 563 -386 1098 -917 1272 -102 33 -309 71
-390 71 -52 0 -55 1 -50 23 39 169 48 220 53 295 7 88 7 89 -21 110 -47 37
-77 29 -153 -40 -145 -133 -318 -238 -520 -317 -70 -27 -104 -36 -106 -28 -46
164 -170 446 -247 558 -54 81 -90 89 -174 40z m123 -329 c98 -232 160 -448
177 -616 6 -58 12 -74 35 -98 34 -33 48 -34 100 -8 50 26 56 47 41 161 -6 50
-9 94 -6 99 3 5 20 12 38 15 88 19 315 132 455 227 23 16 42 24 42 17 0 -6
-17 -43 -37 -83 -55 -104 -157 -204 -258 -253 -69 -33 -82 -44 -91 -73 -26
-77 19 -117 161 -145 101 -20 276 -104 363 -175 35 -29 61 -54 59 -57 -9 -8
-309 18 -374 33 -75 17 -169 52 -232 85 -55 29 -109 29 -132 0 -11 -13 -20
-48 -24 -89 -16 -166 -59 -342 -111 -457 -27 -58 -27 -58 -44 -37 -33 41 -100
210 -136 343 -44 166 -59 204 -90 218 -46 20 -74 12 -150 -43 -42 -31 -111
-69 -157 -87 -102 -39 -293 -88 -372 -95 l-60 -5 68 64 c85 80 209 155 346
208 123 47 155 73 155 123 0 49 -23 70 -139 128 -134 68 -321 205 -304 223 4
3 35 -3 70 -15 75 -24 269 -65 394 -83 l90 -13 5 -111 c6 -133 17 -153 85
-153 67 0 88 24 95 106 8 90 -4 276 -25 389 -18 100 -64 253 -95 317 -24 49
-25 58 -6 58 9 0 34 -47 64 -118z m1228 -522 c193 -31 341 -90 489 -195 306
-218 492 -567 498 -936 l2 -111 -132 -39 c-587 -172 -1078 -455 -1402 -810
-285 -312 -416 -578 -423 -863 -3 -89 -5 -99 -22 -102 -39 -6 -345 16 -451 31
-369 55 -737 208 -975 405 -310 257 -523 638 -570 1020 -13 106 -13 323 0 415
46 322 217 645 438 827 142 119 232 168 437 241 153 55 148 54 197 14 24 -19
63 -47 86 -61 l44 -27 -75 -43 c-175 -100 -303 -217 -403 -371 -57 -88 -68
-130 -45 -173 19 -35 56 -44 151 -37 245 19 550 95 711 176 l57 28 26 -85 c34
-109 81 -210 150 -327 127 -214 209 -230 304 -57 69 125 162 407 162 493 0 32
-1 32 75 6 87 -29 207 -47 403 -59 96 -7 197 -18 225 -26 101 -29 112 -31 142
-23 73 20 76 92 6 199 -101 157 -226 266 -408 356 l-102 51 63 54 63 55 79 -4
c43 -2 133 -12 200 -22z m2139 -1340 c212 -16 401 -47 459 -76 190 -96 469
-360 612 -579 66 -102 138 -249 165 -337 32 -106 100 -147 162 -98 35 27 40
60 22 131 -55 210 -214 473 -416 684 l-92 96 49 -19 c27 -11 105 -46 174 -77
346 -158 590 -323 820 -555 141 -141 217 -242 295 -392 64 -124 90 -197 104
-301 48 -344 -197 -569 -784 -722 -534 -140 -1329 -230 -2130 -242 -781 -12
-1393 52 -1780 186 -422 147 -618 395 -577 729 7 53 19 117 26 143 76 251 283
526 570 759 100 81 301 215 386 257 l65 33 127 -20 c386 -60 692 -194 966
-424 156 -131 269 -271 350 -432 42 -83 54 -94 100 -94 49 0 71 12 87 46 19
40 16 53 -32 149 -65 129 -153 246 -288 380 -135 136 -249 223 -407 313 -148
83 -417 189 -528 207 -97 16 -86 22 180 106 196 61 523 129 621 129 36 0 210
-82 313 -147 395 -249 672 -569 825 -955 28 -70 49 -90 97 -91 29 -1 42 5 65
31 35 39 35 53 8 134 -50 144 -179 370 -298 518 -126 158 -361 372 -531 483
-41 26 -77 50 -79 53 -8 7 151 4 294 -6z"/>
<path d="M1806 10939 c-48 -38 -101 -162 -131 -309 -22 -106 -22 -341 0 -450
31 -154 110 -339 161 -379 41 -33 96 -28 128 10 14 17 26 38 26 47 0 9 -22 62
-50 117 -77 154 -93 228 -94 425 0 152 2 172 27 253 15 49 38 110 52 137 34
66 32 104 -4 141 -35 35 -77 38 -115 8z"/>
<path d="M4540 6644 l0 -196 -27 29 c-37 40 -129 73 -202 73 -159 0 -280 -92
-332 -253 -18 -57 -21 -83 -17 -172 4 -91 8 -112 37 -169 40 -82 120 -158 193
-182 116 -38 250 -14 326 58 l32 32 0 -47 0 -47 90 0 90 0 0 535 0 535 -95 0
-95 0 0 -196z m-102 -283 c47 -24 66 -45 91 -101 38 -84 24 -203 -32 -267 -39
-45 -82 -63 -147 -63 -66 0 -109 19 -148 65 -72 88 -65 265 14 337 57 51 154
64 222 29z"/>
<path d="M1660 6291 l0 -521 95 0 95 0 0 185 0 185 133 0 c188 0 260 22 342
105 56 55 75 117 75 239 0 75 -4 100 -24 143 -33 70 -92 126 -162 154 -55 22
-74 24 -306 27 l-248 3 0 -520z m470 323 c75 -44 100 -134 58 -214 -38 -73
-78 -90 -220 -90 l-118 0 0 166 0 167 124 -5 c98 -4 131 -9 156 -24z"/>
<path d="M6670 6620 l0 -90 -60 0 -60 0 0 -80 0 -80 59 0 59 0 4 -233 3 -234
30 -48 c20 -32 45 -57 75 -73 41 -21 54 -23 150 -20 58 2 111 7 118 11 8 6 12
36 12 94 0 77 -2 84 -17 77 -10 -4 -41 -9 -69 -12 -43 -3 -55 0 -80 21 l-29
25 -3 196 -3 196 100 0 101 0 0 80 0 80 -100 0 -100 0 0 90 0 90 -95 0 -95 0
0 -90z"/>
<path d="M2833 6526 c-32 -15 -60 -38 -77 -62 l-26 -39 0 53 0 52 -95 0 -95 0
0 -380 0 -380 95 0 95 0 0 213 c0 124 5 229 11 252 23 82 127 145 219 132 l41
-5 -3 91 -3 92 -55 3 c-41 2 -68 -4 -107 -22z"/>
<path d="M3354 6541 c-158 -38 -271 -181 -282 -357 -8 -135 23 -227 105 -315
135 -144 393 -151 550 -15 87 76 136 238 113 378 -19 120 -90 226 -185 275
-72 38 -215 54 -301 34z m208 -190 c135 -85 125 -332 -16 -401 -85 -40 -193
-15 -240 57 -53 80 -54 217 -3 295 52 78 176 102 259 49z"/>
<path d="M6005 6537 c-112 -38 -197 -114 -236 -215 -33 -83 -33 -253 -1 -334
31 -76 105 -156 179 -193 55 -28 65 -30 178 -30 112 0 124 2 172 27 29 16 67
41 86 57 39 35 83 111 92 164 l7 37 -91 0 c-52 0 -91 -4 -91 -10 0 -18 -65
-83 -97 -96 -107 -45 -231 19 -263 135 -43 155 43 301 178 301 54 0 122 -38
152 -84 l25 -39 83 6 c46 3 85 7 88 9 2 3 -3 28 -11 56 -23 78 -82 144 -161
183 -59 29 -78 34 -158 36 -56 2 -106 -2 -131 -10z"/>
<path d="M7393 6530 c-167 -55 -271 -245 -242 -444 25 -181 141 -300 314 -324
184 -25 350 59 423 216 25 52 27 68 27 177 0 116 -1 123 -33 187 -40 82 -111
148 -190 179 -82 32 -216 36 -299 9z m223 -169 c77 -35 119 -119 112 -224 -7
-119 -70 -194 -171 -204 -102 -10 -175 35 -206 126 -16 49 -14 155 5 199 44
106 155 150 260 103z"/>
<path d="M8205 6533 c-69 -25 -110 -57 -140 -107 -79 -134 -15 -279 142 -325
37 -11 100 -25 138 -32 86 -14 123 -32 131 -63 19 -78 -109 -123 -214 -76 -30
14 -47 29 -55 50 l-11 30 -88 0 c-48 0 -89 -3 -91 -7 -10 -16 27 -104 58 -141
18 -21 59 -51 91 -67 56 -29 65 -30 184 -30 117 0 128 2 176 27 89 47 134 123
134 225 -1 73 -47 141 -125 181 -11 6 -76 22 -143 36 -145 31 -174 46 -170 89
4 43 46 71 105 71 62 0 104 -21 123 -61 l15 -32 82 2 83 2 0 30 c0 40 -31 104
-66 137 -52 48 -120 71 -219 75 -68 3 -102 -1 -140 -14z"/>
<path d="M4910 6253 c0 -153 5 -294 10 -313 33 -118 123 -182 258 -183 96 -1
143 14 199 66 l43 40 0 -47 0 -47 90 3 c50 2 90 6 90 11 0 4 0 174 0 377 l0
370 -95 0 -95 0 0 -233 c0 -224 -1 -236 -23 -278 -56 -107 -220 -119 -269 -19
-16 30 -18 67 -18 283 l0 247 -95 0 -95 0 0 -277z"/>
<path d="M2703 5436 c-81 -38 -122 -118 -123 -238 l0 -48 -50 0 -50 0 0 -80 0
-80 50 0 50 0 0 -295 0 -295 95 0 95 0 0 295 0 295 95 0 95 0 0 80 0 80 -95 0
c-95 0 -95 0 -95 25 0 80 63 133 144 121 l41 -6 0 82 0 83 -100 3 c-88 2 -106
-1 -152 -22z"/>
<path d="M4647 5160 c-74 -13 -147 -59 -182 -115 -25 -40 -29 -57 -29 -114 0
-75 17 -115 65 -155 45 -38 85 -53 207 -76 112 -21 155 -42 160 -79 16 -106
-223 -120 -270 -16 -11 24 -15 25 -100 25 l-90 0 7 -32 c18 -85 68 -145 155
-187 49 -23 67 -26 165 -26 94 0 117 3 160 23 101 46 154 124 155 223 0 128
-63 180 -274 227 -142 32 -173 51 -162 96 21 84 196 86 231 4 l13 -32 86 0 86
-1 0 28 c0 42 -38 114 -78 147 -64 52 -199 79 -305 60z"/>
<path d="M7086 5159 c-142 -21 -241 -139 -220 -263 18 -114 82 -158 279 -195
63 -12 121 -29 135 -39 34 -26 37 -62 6 -91 -65 -61 -214 -40 -248 35 -11 23
-15 24 -104 24 l-93 0 14 -46 c38 -128 158 -204 322 -204 172 0 285 80 308
217 14 89 -41 193 -120 223 -16 6 -81 22 -144 36 -150 31 -181 52 -167 110 9
35 66 58 125 50 55 -7 86 -27 106 -66 15 -28 18 -30 78 -29 85 1 97 6 97 35 0
33 -26 93 -53 122 -31 33 -107 70 -159 77 -87 12 -104 12 -162 4z"/>
<path d="M3382 5149 c-34 -13 -71 -44 -99 -81 l-23 -32 0 57 0 57 -95 0 -95 0
0 -375 0 -375 95 0 95 0 0 203 c0 111 5 219 10 239 24 84 102 137 203 138 l57
0 0 90 0 90 -62 -1 c-35 0 -74 -4 -86 -10z"/>
<path d="M3818 5145 c-106 -40 -185 -130 -214 -244 -24 -97 -16 -239 18 -311
38 -81 89 -134 166 -172 62 -31 73 -33 172 -33 92 0 112 3 160 26 73 34 120
76 152 136 49 91 51 88 -59 88 -90 0 -97 -1 -106 -23 -15 -33 -68 -62 -125
-69 -93 -11 -174 50 -189 142 l-6 35 263 0 262 0 -4 88 c-7 114 -36 191 -97
252 -74 74 -127 95 -251 97 -71 2 -117 -2 -142 -12z m222 -157 c43 -29 68 -65
76 -105 l7 -33 -167 0 c-187 0 -183 -3 -146 77 26 57 69 83 141 83 42 0 65 -6
89 -22z"/>
<path d="M5400 5145 c-95 -32 -187 -125 -226 -229 -14 -37 -19 -78 -19 -152 0
-96 2 -103 38 -176 42 -86 90 -133 176 -176 79 -38 220 -44 303 -12 101 38
192 140 213 238 l7 32 -91 0 c-90 0 -91 0 -106 -29 -8 -17 -32 -43 -52 -58
-32 -25 -45 -28 -108 -28 -63 0 -76 3 -108 28 -74 56 -103 167 -72 273 29 100
112 154 212 139 50 -7 110 -53 119 -91 6 -23 9 -24 100 -24 107 0 107 -1 77
85 -22 61 -89 131 -158 165 -42 21 -67 25 -155 27 -71 2 -120 -2 -150 -12z"/>
<path d="M6238 5147 c-137 -51 -222 -149 -248 -285 -42 -213 68 -413 258 -468
86 -25 221 -16 295 21 71 35 140 107 175 183 24 51 27 68 27 172 0 106 -2 120
-29 177 -34 74 -109 150 -181 183 -63 29 -237 39 -297 17z m222 -176 c20 -10
48 -38 65 -66 25 -41 31 -61 33 -124 3 -68 1 -82 -25 -130 -34 -65 -91 -101
-159 -101 -119 0 -194 87 -194 225 0 177 134 271 280 196z"/>
<path d="M3273 3786 c-107 -35 -195 -115 -235 -215 -19 -47 -23 -75 -23 -176
0 -102 3 -127 22 -167 30 -67 107 -145 178 -181 57 -30 66 -32 175 -32 103 0
121 3 170 26 31 14 72 40 92 58 40 35 98 140 98 178 0 22 -2 23 -87 23 l-88
-1 -28 -40 c-38 -56 -81 -79 -145 -79 -68 0 -111 19 -149 64 -53 65 -69 169
-38 257 37 104 148 156 247 114 34 -14 98 -76 98 -95 0 -6 39 -10 90 -10 88 0
90 1 90 23 0 38 -58 143 -98 178 -64 56 -134 82 -236 85 -59 3 -106 -1 -133
-10z"/>
<path d="M4075 3791 c-105 -27 -170 -94 -194 -200 l-9 -41 87 0 87 0 17 36
c28 58 109 80 182 50 41 -18 65 -52 72 -106 l6 -40 -94 0 c-183 -1 -297 -43
-352 -131 -78 -128 -21 -283 122 -334 95 -33 216 -12 290 51 l41 36 0 -41 0
-41 91 0 90 0 -3 273 c-3 227 -7 280 -21 318 -25 66 -70 114 -134 146 -49 23
-71 28 -153 30 -52 1 -108 -2 -125 -6z m245 -475 c0 -28 -8 -54 -22 -76 -39
-57 -71 -74 -148 -78 -63 -4 -71 -2 -94 21 -32 32 -34 84 -6 119 26 34 102 54
213 57 l57 1 0 -44z"/>
<path d="M4828 3787 c-175 -50 -236 -245 -114 -363 46 -43 109 -68 259 -99 91
-19 120 -41 115 -87 -5 -49 -46 -73 -126 -73 -79 0 -134 28 -151 75 l-10 30
-85 0 c-85 0 -86 0 -86 -25 0 -58 53 -138 120 -180 89 -56 228 -70 341 -35
117 36 179 113 179 223 0 134 -61 188 -261 232 -148 33 -169 45 -169 96 0 39
32 62 94 67 64 5 108 -15 128 -58 l13 -30 87 0 c49 0 88 4 88 8 0 5 -7 31 -15
59 -18 60 -65 111 -131 142 -60 29 -205 38 -276 18z"/>
<path d="M5630 3787 c-97 -27 -162 -88 -214 -197 -29 -61 -31 -72 -31 -180 1
-95 5 -125 24 -172 31 -81 104 -158 183 -194 56 -26 74 -29 163 -29 93 0 105
2 167 33 72 35 115 79 148 149 33 71 32 73 -67 73 -87 -1 -88 -1 -108 -32 -42
-65 -138 -86 -222 -49 -47 22 -69 50 -88 115 l-14 46 262 2 262 3 -2 70 c-4
114 -34 194 -98 263 -71 77 -131 104 -240 109 -45 1 -100 -3 -125 -10z m180
-159 c49 -26 75 -57 89 -105 l10 -33 -166 0 -165 0 7 28 c17 71 89 132 155
132 14 0 46 -10 70 -22z"/>
<path d="M6555 3785 c-23 -8 -58 -34 -82 -60 l-43 -47 0 51 0 51 -95 0 -95 0
0 -375 0 -375 95 0 95 0 0 198 c0 108 5 215 10 236 20 87 91 136 197 136 l64
0 -3 98 -3 97 -50 2 c-27 2 -68 -4 -90 -12z"/>
<path d="M7037 3790 c-184 -47 -301 -242 -270 -454 19 -135 89 -233 208 -292
55 -27 69 -29 170 -29 98 0 116 3 167 27 70 32 146 106 175 169 75 161 44 368
-72 484 -69 69 -138 97 -249 101 -50 2 -108 -1 -129 -6z m194 -183 c29 -16 54
-40 74 -72 27 -44 30 -56 30 -134 0 -107 -21 -153 -88 -195 -36 -22 -59 -29
-100 -29 -93 0 -154 50 -183 150 -58 198 103 366 267 280z"/>
<path d="M7828 3786 c-109 -29 -178 -116 -178 -226 0 -120 87 -191 274 -225
133 -24 176 -55 155 -112 -14 -38 -57 -58 -124 -58 -73 1 -118 23 -147 71
l-20 34 -85 0 -85 0 7 -37 c15 -85 73 -150 171 -195 41 -19 66 -23 159 -23 94
0 118 4 163 24 149 67 200 250 99 360 -31 33 -110 67 -203 86 -145 29 -184 48
-184 90 0 88 194 100 232 14 13 -29 14 -29 95 -29 l83 0 0 28 c-1 80 -82 169
-179 196 -67 19 -167 20 -233 2z"/>
<path d="M1851 3728 c12 -29 34 -89 51 -133 16 -44 72 -188 124 -321 52 -132
94 -248 94 -258 0 -9 -22 -74 -50 -144 -27 -70 -50 -130 -50 -134 0 -5 45 -8
99 -8 l99 0 112 303 c62 166 137 367 167 447 30 80 68 180 84 223 l28 77 -103
0 -103 0 -89 -265 c-49 -145 -92 -261 -95 -257 -4 4 -46 123 -94 265 l-88 257
-103 0 -104 0 21 -52z"/>
</g>
</svg>
