<svg id="visual" viewBox="0 0 900 600" width="900" height="600" xmlns="http://www.w3.org/2000/svg" xmlns:xlink="http://www.w3.org/1999/xlink" version="1.1"><path d="M0 187L90 187L90 55L180 55L180 127L270 127L270 61L360 61L360 163L450 163L450 199L540 199L540 97L630 97L630 67L720 67L720 139L810 139L810 193L900 193L900 133L900 0L900 0L810 0L810 0L720 0L720 0L630 0L630 0L540 0L540 0L450 0L450 0L360 0L360 0L270 0L270 0L180 0L180 0L90 0L90 0L0 0Z" fill="#faa718"></path><path d="M0 223L90 223L90 103L180 103L180 205L270 205L270 139L360 139L360 247L450 247L450 229L540 229L540 169L630 169L630 97L720 97L720 247L810 247L810 271L900 271L900 223L900 131L900 191L810 191L810 137L720 137L720 65L630 65L630 95L540 95L540 197L450 197L450 161L360 161L360 59L270 59L270 125L180 125L180 53L90 53L90 185L0 185Z" fill="#fab146"></path><path d="M0 271L90 271L90 133L180 133L180 259L270 259L270 169L360 169L360 289L450 289L450 289L540 289L540 259L630 259L630 169L720 169L720 283L810 283L810 319L900 319L900 259L900 221L900 269L810 269L810 245L720 245L720 95L630 95L630 167L540 167L540 227L450 227L450 245L360 245L360 137L270 137L270 203L180 203L180 101L90 101L90 221L0 221Z" fill="#f9bb68"></path><path d="M0 331L90 331L90 205L180 205L180 301L270 301L270 211L360 211L360 313L450 313L450 367L540 367L540 307L630 307L630 187L720 187L720 361L810 361L810 367L900 367L900 313L900 257L900 317L810 317L810 281L720 281L720 167L630 167L630 257L540 257L540 287L450 287L450 287L360 287L360 167L270 167L270 257L180 257L180 131L90 131L90 269L0 269Z" fill="#f7c587"></path><path d="M0 487L90 487L90 439L180 439L180 505L270 505L270 451L360 451L360 457L450 457L450 445L540 445L540 481L630 481L630 463L720 463L720 523L810 523L810 445L900 445L900 451L900 311L900 365L810 365L810 359L720 359L720 185L630 185L630 305L540 305L540 365L450 365L450 311L360 311L360 209L270 209L270 299L180 299L180 203L90 203L90 329L0 329Z" fill="#f3cfa6"></path><path d="M0 553L90 553L90 505L180 505L180 565L270 565L270 511L360 511L360 487L450 487L450 475L540 475L540 499L630 499L630 511L720 511L720 553L810 553L810 475L900 475L900 475L900 449L900 443L810 443L810 521L720 521L720 461L630 461L630 479L540 479L540 443L450 443L450 455L360 455L360 449L270 449L270 503L180 503L180 437L90 437L90 485L0 485Z" fill="#ecd9c4"></path><path d="M0 601L90 601L90 601L180 601L180 601L270 601L270 601L360 601L360 601L450 601L450 601L540 601L540 601L630 601L630 601L720 601L720 601L810 601L810 601L900 601L900 601L900 473L900 473L810 473L810 551L720 551L720 509L630 509L630 497L540 497L540 473L450 473L450 485L360 485L360 509L270 509L270 563L180 563L180 503L90 503L90 551L0 551Z" fill="#e3e3e3"></path></svg>